<?xml version="1.0" encoding="utf-8"?>
<!-- Generator: Adobe Illustrator 21.1.0, SVG Export Plug-In . SVG Version: 6.00 Build 0)  -->
<svg version="1.1" id="Layer_1" xmlns="http://www.w3.org/2000/svg" xmlns:xlink="http://www.w3.org/1999/xlink" x="0px" y="0px"
	 viewBox="0 0 32 32" style="enable-background:new 0 0 32 32;" xml:space="preserve">
<style type="text/css">
	.st0{fill:#F0F0F0;}
</style>
<path id="behance" class="st0" d="M6.9,8.1c0.6,0,1.3,0.1,1.9,0.2c0.5,0.1,1,0.3,1.5,0.6c0.4,0.3,0.7,0.7,1,1.1
	c0.2,0.5,0.4,1.1,0.3,1.7c0,0.7-0.2,1.3-0.5,1.8c-0.4,0.5-0.9,0.9-1.5,1.2c0.8,0.2,1.5,0.7,2,1.4c0.5,0.7,0.7,1.5,0.7,2.3
	c0,0.7-0.1,1.3-0.4,1.9c-0.3,0.5-0.7,1-1.2,1.3C10.2,22,9.6,22.2,9,22.4c-0.6,0.2-1.3,0.2-1.9,0.2H0V8.1H6.9 M6.5,14
	c0.5,0,1-0.1,1.4-0.4c0.4-0.3,0.6-0.8,0.5-1.3c0-0.3-0.1-0.6-0.2-0.8c-0.1-0.2-0.3-0.4-0.5-0.5S7.2,10.8,7,10.7
	c-0.3-0.1-0.6-0.1-0.8-0.1h-3V14H6.5z M6.7,20.2c0.3,0,0.6,0,0.9-0.1c0.3-0.1,0.5-0.2,0.8-0.3c0.2-0.1,0.4-0.3,0.5-0.6
	c0.1-0.3,0.2-0.6,0.2-0.9c0.1-0.6-0.2-1.2-0.6-1.6c-0.5-0.3-1.1-0.5-1.7-0.5H3.2v4H6.7z M16.9,20.1c0.5,0.5,1.2,0.7,1.9,0.6
	c0.5,0,1.1-0.1,1.5-0.4c0.4-0.2,0.6-0.5,0.8-0.9h2.6c-0.3,1.1-1,2.1-1.9,2.7c-0.9,0.6-2,0.9-3.1,0.8c-0.8,0-1.5-0.1-2.3-0.4
	c-0.6-0.3-1.2-0.6-1.7-1.1s-0.8-1.1-1.1-1.8c-0.3-0.7-0.4-1.5-0.4-2.3s0.1-1.5,0.4-2.2c0.2-0.7,0.6-1.3,1.1-1.8s1.1-0.9,1.7-1.2
	c0.7-0.3,1.5-0.4,2.2-0.4c0.8,0,1.6,0.2,2.4,0.5c0.7,0.3,1.2,0.8,1.7,1.4c0.4,0.6,0.8,1.3,0.9,2c0.2,0.8,0.3,1.6,0.2,2.4h-7.6
	C16.1,18.8,16.4,19.6,16.9,20.1 M20.2,14.6c-0.4-0.4-1-0.6-1.6-0.6c-0.4,0-0.8,0.1-1.2,0.2c-0.3,0.1-0.5,0.3-0.7,0.6
	c-0.2,0.2-0.3,0.5-0.4,0.7c-0.1,0.2-0.1,0.5-0.1,0.7h4.7C20.8,15.6,20.6,15.1,20.2,14.6z M15.5,10.5h5.9V9h-5.9V10.5z"/>
</svg>
