<?xml version="1.0" encoding="utf-8"?>
<!-- Generator: Adobe Illustrator 21.1.0, SVG Export Plug-In . SVG Version: 6.00 Build 0)  -->
<svg version="1.1" id="Layer_1" xmlns="http://www.w3.org/2000/svg" xmlns:xlink="http://www.w3.org/1999/xlink" x="0px" y="0px"
	 viewBox="0 0 32 32" style="enable-background:new 0 0 32 32;" xml:space="preserve">
<style type="text/css">
	.st0{fill:#F0F0F0;}
</style>
<path id="dribbble" class="st0" d="M12,28C5.4,28,0,22.6,0,16S5.4,4,12,4s12,5.4,12,12S18.6,28,12,28z M22.1,17.6
	c-2.1-0.6-4.2-0.8-6.4-0.4c0.9,2.4,1.5,4.8,2,7.3C20.1,22.9,21.7,20.4,22.1,17.6z M16,25.4c-0.5-2.7-1.2-5.3-2.2-7.8h-0.1
	c-5.8,2-7.9,6-8,6.4C8.6,26.4,12.6,26.9,16,25.4z M4.4,22.9c1.9-3.1,4.9-5.5,8.3-6.8c0.1,0,0.3-0.1,0.4-0.1
	c-0.3-0.6-0.5-1.2-0.8-1.7c-3.4,1-7,1.5-10.5,1.5c0,0.1,0,0.2,0,0.3C1.7,18.5,2.7,21,4.4,22.9z M2,13.9c3.2,0,6.4-0.4,9.5-1.2
	c-1.2-2-2.4-4-3.8-5.9C4.7,8.1,2.6,10.8,2,13.9L2,13.9z M9.6,6.1c1.4,1.9,2.7,3.9,3.8,6c2.1-0.7,4-2,5.4-3.7
	C16.3,6.1,12.9,5.3,9.6,6.1z M19.9,9.5c-1.5,1.8-3.5,3.2-5.7,4c0.2,0.5,0.5,1,0.7,1.5c0.1,0.2,0.1,0.4,0.2,0.5
	c2.4-0.2,4.8-0.1,7.1,0.3C22.2,13.6,21.4,11.3,19.9,9.5z"/>
</svg>
