<?xml version="1.0" encoding="utf-8"?>
<!-- Generator: Adobe Illustrator 21.1.0, SVG Export Plug-In . SVG Version: 6.00 Build 0)  -->
<svg version="1.1" id="Layer_1" xmlns="http://www.w3.org/2000/svg" xmlns:xlink="http://www.w3.org/1999/xlink" x="0px" y="0px"
	 viewBox="0 0 32 32" style="enable-background:new 0 0 32 32;" xml:space="preserve">
<style type="text/css">
	.st0{fill:#F0F0F0;}
</style>
<path id="dribbble" class="st0" d="M16,28C9.4,28,4,22.6,4,16C4,9.4,9.4,4,16,4c6.6,0,12,5.4,12,12C28,22.6,22.6,28,16,28z
	 M26.1,17.6c-2.1-0.6-4.2-0.8-6.4-0.4c0.9,2.4,1.5,4.8,2,7.3C24.1,22.9,25.7,20.4,26.1,17.6z M20,25.4c-0.5-2.7-1.2-5.3-2.2-7.8
	l-0.1,0c-5.8,2-7.9,6-8,6.4C12.6,26.4,16.6,26.9,20,25.4z M8.4,22.9c1.9-3.1,4.9-5.5,8.3-6.8c0.1,0,0.3-0.1,0.4-0.1
	c-0.3-0.6-0.5-1.2-0.8-1.7c-3.4,1-7,1.5-10.5,1.5c0,0.1,0,0.2,0,0.3C5.7,18.5,6.7,21,8.4,22.9z M6,13.9c3.2,0,6.4-0.4,9.5-1.2
	c-1.2-2-2.4-4-3.8-5.9C8.7,8.1,6.6,10.8,6,13.9L6,13.9z M13.6,6.1c1.4,1.9,2.7,3.9,3.8,6c2.1-0.7,4-2,5.4-3.7
	C20.3,6.1,16.9,5.3,13.6,6.1z M23.9,9.5c-1.5,1.8-3.5,3.2-5.7,4c0.2,0.5,0.5,1,0.7,1.5c0.1,0.2,0.1,0.4,0.2,0.5
	c2.4-0.2,4.8-0.1,7.1,0.3C26.2,13.6,25.4,11.3,23.9,9.5z"/>
</svg>
