<?xml version="1.0" encoding="utf-8"?>
<!-- Generator: Adobe Illustrator 21.1.0, SVG Export Plug-In . SVG Version: 6.00 Build 0)  -->
<svg version="1.1" id="Layer_1" xmlns="http://www.w3.org/2000/svg" xmlns:xlink="http://www.w3.org/1999/xlink" x="0px" y="0px"
	 viewBox="0 0 32 32" style="enable-background:new 0 0 32 32;" xml:space="preserve">
<style type="text/css">
	.st0{fill:#F0F0F0;}
</style>
<path id="instagram" class="st0" d="M12,6.2c3.2,0,3.6,0,4.8,0.1c0.8,0,1.5,0.1,2.2,0.4c1,0.4,1.9,1.2,2.3,2.3
	c0.3,0.7,0.4,1.5,0.4,2.2c0.1,1.3,0.1,1.6,0.1,4.8s0,3.6-0.1,4.8c0,0.8-0.1,1.5-0.4,2.2c-0.4,1-1.2,1.9-2.3,2.3
	c-0.7,0.3-1.5,0.4-2.2,0.4c-1.3,0.1-1.6,0.1-4.8,0.1s-3.6,0-4.8-0.1c-0.8,0-1.5-0.1-2.2-0.4c-1-0.4-1.9-1.2-2.3-2.3
	c-0.3-0.7-0.4-1.5-0.4-2.2c-0.1-1.3-0.1-1.6-0.1-4.8s0-3.6,0.1-4.8c0-0.8,0.1-1.5,0.4-2.2C3,7.9,3.9,7,4.9,6.6
	c0.7-0.3,1.5-0.4,2.2-0.4C8.4,6.2,8.8,6.2,12,6.2 M12,4C8.7,4,8.3,4,7.1,4.1c-1,0-2,0.2-2.9,0.6C2.5,5.3,1.3,6.5,0.6,8.1
	C0.3,9,0.1,10,0,11c0,1.3,0,1.7,0,5s0,3.7,0.1,4.9c0,1,0.2,2,0.6,2.9c0.6,1.6,1.9,2.9,3.5,3.5c0.9,0.3,1.9,0.5,2.9,0.6
	C8.3,28,8.7,28,12,28s3.7,0,4.9-0.1c1,0,2-0.2,2.9-0.6c1.6-0.6,2.9-1.9,3.5-3.5c0.3-0.9,0.5-1.9,0.6-2.9C24,19.7,24,19.3,24,16
	s0-3.7-0.1-4.9c0-1-0.2-2-0.6-2.9c-0.6-1.6-1.9-2.9-3.5-3.5c-0.9-0.3-1.9-0.5-2.9-0.6C15.7,4,15.3,4,12,4z M12,9.8
	c-3.4,0-6.2,2.8-6.2,6.2s2.8,6.2,6.2,6.2s6.2-2.8,6.2-6.2S15.4,9.8,12,9.8L12,9.8z M12,20c-2.2,0-4-1.8-4-4s1.8-4,4-4s4,1.8,4,4
	S14.2,20,12,20z M18.4,8.2c-0.8,0-1.4,0.6-1.4,1.4c0,0.8,0.6,1.4,1.4,1.4s1.4-0.6,1.4-1.4S19.2,8.2,18.4,8.2L18.4,8.2z"/>
</svg>
